<?xml version="1.0" encoding="utf-8"?>
<!-- Generator: Adobe Illustrator 17.1.0, SVG Export Plug-In . SVG Version: 6.00 Build 0)  -->
<!DOCTYPE svg PUBLIC "-//W3C//DTD SVG 1.1//EN" "http://www.w3.org/Graphics/SVG/1.1/DTD/svg11.dtd">
<svg version="1.1" id="Capa_1" xmlns="http://www.w3.org/2000/svg" xmlns:xlink="http://www.w3.org/1999/xlink" x="0px" y="0px"
	 viewBox="0 0 46.7 41.3" enable-background="new 0 0 46.7 41.3" xml:space="preserve">
<path fill="#FFFFFF" d="M39.6,16h-0.3c-0.1-0.2-0.2-0.3-0.3-0.4L27.3,4c0.1-0.2,0.1-0.5,0.1-0.7c0-0.9-0.3-1.7-0.9-2.3
	c-0.6-0.6-1.4-1-2.3-1h-3.7c-0.9,0-1.6,0.3-2.2,1c-0.6,0.6-0.9,1.4-0.9,2.3V4L5.6,15.7c-0.1,0.1-0.2,0.2-0.3,0.4H0v6.5h2.1v14.1
	c0,1.3,0.5,2.4,1.5,3.3s2.2,1.4,3.6,1.4h32.4c1.4,0,2.6-0.5,3.6-1.4s1.5-2,1.5-3.3V22.5h2.1V16H39.6z M11.2,35.7
	c0,0.5-0.2,0.9-0.6,1.3c-0.4,0.4-0.9,0.5-1.4,0.5s-1-0.2-1.4-0.5c-0.4-0.4-0.6-0.8-0.6-1.3V24.4c0-0.5,0.2-1,0.6-1.4
	c0.4-0.4,0.9-0.5,1.4-0.5s1,0.2,1.4,0.5c0.4,0.4,0.6,0.8,0.6,1.4V35.7z M20.3,35.7c0,0.5-0.2,0.9-0.6,1.3c-0.4,0.4-0.9,0.5-1.4,0.5
	s-1-0.2-1.4-0.5c-0.4-0.4-0.6-0.8-0.6-1.3V24.4c0-0.5,0.2-1,0.6-1.4c0.4-0.4,0.9-0.5,1.4-0.5s1,0.2,1.4,0.5c0.4,0.4,0.6,0.8,0.6,1.4
	V35.7z M30.5,35.7c0,0.5-0.2,0.9-0.6,1.3c-0.4,0.4-0.9,0.5-1.4,0.5s-1-0.2-1.4-0.5c-0.4-0.4-0.6-0.8-0.6-1.3V24.4
	c0-0.5,0.2-1,0.6-1.4c0.4-0.4,0.9-0.5,1.4-0.5s1,0.2,1.4,0.5c0.4,0.4,0.6,0.8,0.6,1.4V35.7z M10.9,16l9.4-9.4h0.1h0h3.7h0.1h0
	l9.5,9.4H10.9z M39.6,35.7c0,0.5-0.2,0.9-0.6,1.3c-0.4,0.4-0.9,0.5-1.4,0.5c-0.6,0-1-0.2-1.4-0.5c-0.4-0.4-0.6-0.8-0.6-1.3V24.4
	c0-0.5,0.2-1,0.6-1.4c0.4-0.4,0.9-0.5,1.4-0.5c0.6,0,1,0.2,1.4,0.5c0.4,0.4,0.6,0.8,0.6,1.4V35.7z"/>
</svg>
