<?xml version="1.0" encoding="utf-8"?>
<!-- Generator: Adobe Illustrator 17.1.0, SVG Export Plug-In . SVG Version: 6.00 Build 0)  -->
<!DOCTYPE svg PUBLIC "-//W3C//DTD SVG 1.1//EN" "http://www.w3.org/Graphics/SVG/1.1/DTD/svg11.dtd">
<svg version="1.1" id="Capa_1" xmlns="http://www.w3.org/2000/svg" xmlns:xlink="http://www.w3.org/1999/xlink" x="0px" y="0px"
	 viewBox="164.3 0 631.2 560" enable-background="new 164.3 0 631.2 560" xml:space="preserve">
<path d="M698.9,218.9L698.9,218.9c-5.1,0-5.1-5.1-10.2-5.1L536,56c0-5.1,0-5.1,0-10.2c0-10.2-5.1-25.5-15.3-30.5S505.5,0,490.2,0
	h-50.9c-10.2,0-20.4,5.1-25.5,15.3c-10.2,5.1-15.3,15.3-15.3,30.5V56L240.7,213.8c0,0,0,0-5.1,5.1h-71.3v86.5h30.5v193.5
	c0,15.3,5.1,30.5,20.4,45.8S240.7,560,261,560h437.8c20.4,0,35.6-5.1,45.8-20.4c10.2-15.3,20.4-25.5,20.4-45.8V305.5h30.5V219h-96.6
	V218.9z M317.1,483.6c0,5.1-5.1,10.2-10.2,15.3c-5.1,5.1-10.2,10.2-20.4,10.2c-5.1,0-15.3,0-20.4-5.1s-5.1-15.3-5.1-20.4V330.9
	c0-5.1,5.1-15.3,10.2-20.4s10.2-5.1,15.3-5.1s15.3,0,20.4,5.1s10.2,15.3,10.2,20.4V483.6z M439.3,483.6c0,5.1-5.1,10.2-10.2,15.3
	c-5.1,5.1-10.2,10.2-15.3,10.2s-15.3,0-20.4-5.1s-10.2-15.3-10.2-20.4V330.9c0-5.1,5.1-15.3,10.2-20.4s10.2-5.1,20.4-5.1
	c5.1,0,10.2,0,15.3,5.1c5.1,5.1,10.2,10.2,10.2,20.4V483.6L439.3,483.6z M576.7,483.6c0,5.1-5.1,10.2-10.2,15.3
	c-5.1,5.1-10.2,10.2-15.3,10.2s-15.3,0-20.4-5.1c-5.1-5.1-10.2-15.3-10.2-20.4V330.9c0-5.1,5.1-15.3,10.2-20.4
	c5.1-5.1,10.2-5.1,20.4-5.1c5.1,0,15.3,0,20.4,5.1c5.1,5.1,10.2,10.2,10.2,20.4v152.7L576.7,483.6L576.7,483.6z M312,218.9
	L439.3,91.6l0,0l0,0h50.9l0,0l0,0l132.4,127.3H312z M698.9,483.6c0,5.1-5.1,10.2-10.2,15.3c0,10.2-5.1,10.2-15.3,10.2
	c-5.1,0-15.3,0-20.4-5.1c-5.1-5.1-5.1-15.3-5.1-20.4V330.9c0-5.1,5.1-15.3,10.2-20.4c0-5.1,10.2-5.1,15.3-5.1s15.3,0,20.4,5.1
	c5.1,5.1,10.2,10.2,10.2,20.4v152.7L698.9,483.6L698.9,483.6z"/>
</svg>
