<?xml version="1.0" encoding="utf-8"?>
<!-- Generator: Adobe Illustrator 17.1.0, SVG Export Plug-In . SVG Version: 6.00 Build 0)  -->
<!DOCTYPE svg PUBLIC "-//W3C//DTD SVG 1.1//EN" "http://www.w3.org/Graphics/SVG/1.1/DTD/svg11.dtd">
<svg version="1.1" id="Capa_1" xmlns="http://www.w3.org/2000/svg" xmlns:xlink="http://www.w3.org/1999/xlink" x="0px" y="0px"
	 viewBox="0 0 45.9 45.9" enable-background="new 0 0 45.9 45.9" xml:space="preserve">
<g>
	<circle fill="#C65D17" cx="23" cy="23" r="23"/>
	<path fill="#FFFFFF" d="M34.6,31c-0.1,0.5-0.2,0.9-0.4,1.2c-0.2,0.6-0.9,1.2-2.1,1.8c-1.1,0.6-2.1,0.9-3.1,0.9
		c-0.3,0-0.6,0-0.9-0.1c-0.3,0-0.6-0.1-1-0.2c-0.4-0.1-0.6-0.2-0.8-0.2c-0.2-0.1-0.5-0.2-0.9-0.3c-0.4-0.2-0.7-0.3-0.8-0.3
		c-1.1-0.4-2.1-0.9-2.9-1.4c-1.4-0.9-2.9-2.1-4.5-3.6s-2.7-3-3.6-4.5c-0.5-0.9-1-1.8-1.4-2.9c0-0.1-0.1-0.4-0.3-0.8
		c-0.2-0.4-0.3-0.8-0.3-0.9c-0.1-0.2-0.1-0.4-0.2-0.8c-0.1-0.4-0.2-0.7-0.2-1c0-0.3-0.1-0.6-0.1-0.9l0,0c0-1,0.3-2.1,0.9-3.1
		c0.6-1.1,1.2-1.8,1.8-2.1c0.3-0.1,0.7-0.2,1.2-0.4s0.9-0.2,1.2-0.2c0.2,0,0.3,0,0.4,0.1c0.2,0.1,0.5,0.5,0.9,1.3
		c0.1,0.2,0.3,0.5,0.5,0.9s0.4,0.7,0.6,1.1c0.2,0.3,0.4,0.6,0.5,0.9c0,0,0.1,0.2,0.3,0.4c0.2,0.2,0.3,0.4,0.4,0.6
		c0.1,0.2,0.1,0.3,0.1,0.5c0,0.2-0.2,0.5-0.5,0.8c-0.3,0.3-0.7,0.6-1,0.9c-0.4,0.3-0.7,0.6-1,0.9c-0.3,0.3-0.5,0.6-0.5,0.8
		c0,0.1,0,0.2,0.1,0.4c0.1,0.2,0.1,0.3,0.1,0.3c0,0.1,0.1,0.2,0.2,0.4c0.1,0.2,0.2,0.3,0.2,0.3c0.9,1.5,1.8,2.9,2.9,4
		c1.1,1.1,2.4,2.1,4,2.9c0,0,0.1,0.1,0.3,0.2c0.2,0.1,0.3,0.2,0.4,0.2c0.1,0,0.2,0.1,0.3,0.1c0.2,0.1,0.3,0.1,0.4,0.1
		c0.2,0,0.5-0.2,0.8-0.5c0.3-0.3,0.6-0.7,0.9-1c0.3-0.4,0.6-0.7,0.9-1c0.3-0.3,0.6-0.5,0.8-0.5c0.2,0,0.3,0,0.5,0.1
		c0.2,0.1,0.4,0.2,0.6,0.4c0.2,0.2,0.4,0.3,0.4,0.3c0.3,0.2,0.6,0.3,0.9,0.5c0.3,0.2,0.7,0.4,1.1,0.6c0.4,0.2,0.7,0.4,0.9,0.5
		c0.8,0.4,1.2,0.7,1.3,0.9c0,0.1,0.1,0.2,0.1,0.4C34.8,30.1,34.8,30.5,34.6,31z"/>
</g>
</svg>
