<?xml version="1.0" encoding="utf-8"?>
<!-- Generator: Adobe Illustrator 17.1.0, SVG Export Plug-In . SVG Version: 6.00 Build 0)  -->
<!DOCTYPE svg PUBLIC "-//W3C//DTD SVG 1.1//EN" "http://www.w3.org/Graphics/SVG/1.1/DTD/svg11.dtd">
<svg version="1.1" id="Capa_1" xmlns="http://www.w3.org/2000/svg" xmlns:xlink="http://www.w3.org/1999/xlink" x="0px" y="0px"
	 viewBox="200 0 561.2 561.2" enable-background="new 200 0 561.2 561.2" xml:space="preserve">
<g>
	<path fill="#FFFFFF" d="M480.6,0C325.7,0,200,125.7,200,280.6s125.7,280.6,280.6,280.6s280.6-125.7,280.6-280.6S634.3,0,480.6,0z
		 M657.5,366c0,6.1-1.2,12.2-4.9,18.3s-9.8,11-18.3,11c-51.2,0-102.5,0-154.9,0c-50,0-101.3,0-151.3,0c-13.4,0-22-7.3-24.4-20.7
		c-1.2-7.3-1.2-13.4-1.2-20.7c0-53.7,0-106.1,0-159.8c0-4.9,1.2-11,3.7-15.9c3.7-8.5,11-13.4,20.7-13.4c45.1,0,89.1,0,134.2,0
		c56.1,0,112.2,0,168.4,0c18.3,0,28.1,9.8,28.1,28.1c0,24.4,0,47.6,0,72C657.5,298.9,657.5,333.1,657.5,366z"/>
	<path fill="#FFFFFF" d="M466,268.4c9.8,6.1,19.5,6.1,28.1,0c34.2-22,68.3-45.1,102.5-67.1c1.2,0,1.2-1.2,2.4-2.4
		c-79.3,0-157.4,0-236.7,0c1.2,1.2,2.4,1.2,2.4,2.4C398.9,223.3,431.8,245.2,466,268.4z"/>
	<path fill="#FFFFFF" d="M592.9,242.8c-32.9,22-64.7,42.7-97.6,64.7c-9.8,6.1-19.5,6.1-29.3,0c-40.3-26.8-81.7-53.7-122-80.5
		c-2.4-1.2-4.9-2.4-7.3-4.9c0,46.4,0,92.7,0,139.1c96.4,0,191.5,0,286.7,0c0-46.4,0-92.7,0-139.1c-1.2,1.2-2.4,1.2-2.4,1.2
		C611.2,230.6,602.6,236.7,592.9,242.8z"/>
</g>
</svg>
