<?xml version="1.0" encoding="utf-8"?>
<!-- Generator: Adobe Illustrator 17.1.0, SVG Export Plug-In . SVG Version: 6.00 Build 0)  -->
<!DOCTYPE svg PUBLIC "-//W3C//DTD SVG 1.1//EN" "http://www.w3.org/Graphics/SVG/1.1/DTD/svg11.dtd">
<svg version="1.1" id="Capa_1" xmlns="http://www.w3.org/2000/svg" xmlns:xlink="http://www.w3.org/1999/xlink" x="0px" y="0px"
	 viewBox="0 0 45.9 45.9" enable-background="new 0 0 45.9 45.9" xml:space="preserve">
<g>
	<path d="M23,0C10.3,0,0,10.3,0,23s10.3,23,23,23s23-10.3,23-23S35.6,0,23,0z M37.5,30c0,0.5-0.1,1-0.4,1.5
		c-0.3,0.5-0.8,0.9-1.5,0.9c-4.2,0-8.4,0-12.7,0c-4.1,0-8.3,0-12.4,0c-1.1,0-1.8-0.6-2-1.7c-0.1-0.6-0.1-1.1-0.1-1.7
		c0-4.4,0-8.7,0-13.1c0-0.4,0.1-0.9,0.3-1.3c0.3-0.7,0.9-1.1,1.7-1.1c3.7,0,7.3,0,11,0c4.6,0,9.2,0,13.8,0c1.5,0,2.3,0.8,2.3,2.3
		c0,2,0,3.9,0,5.9C37.5,24.5,37.5,27.3,37.5,30z"/>
	<path d="M21.8,22c0.8,0.5,1.6,0.5,2.3,0c2.8-1.8,5.6-3.7,8.4-5.5c0.1,0,0.1-0.1,0.2-0.2c-6.5,0-12.9,0-19.4,0
		c0.1,0.1,0.2,0.1,0.2,0.2C16.3,18.3,19,20.1,21.8,22z"/>
	<path d="M32.2,19.9c-2.7,1.8-5.3,3.5-8,5.3c-0.8,0.5-1.6,0.5-2.4,0c-3.3-2.2-6.7-4.4-10-6.6c-0.2-0.1-0.4-0.2-0.6-0.4
		c0,3.8,0,7.6,0,11.4c7.9,0,15.7,0,23.5,0c0-3.8,0-7.6,0-11.4c-0.1,0.1-0.2,0.1-0.2,0.1C33.7,18.9,33,19.4,32.2,19.9z"/>
</g>
</svg>
