<?xml version="1.0" encoding="utf-8"?>
<!-- Generator: Adobe Illustrator 17.1.0, SVG Export Plug-In . SVG Version: 6.00 Build 0)  -->
<!DOCTYPE svg PUBLIC "-//W3C//DTD SVG 1.1//EN" "http://www.w3.org/Graphics/SVG/1.1/DTD/svg11.dtd">
<svg version="1.1" id="Capa_1" xmlns="http://www.w3.org/2000/svg" xmlns:xlink="http://www.w3.org/1999/xlink" x="0px" y="0px"
	 viewBox="0 0 45.9 45.9" enable-background="new 0 0 45.9 45.9" xml:space="preserve">
<path id="twitter-4-icon" d="M23,0C10.3,0,0,10.3,0,23c0,12.7,10.3,23,23,23c12.7,0,23-10.3,23-23C45.9,10.3,35.6,0,23,0z M34.5,19
	c0.3,7.5-5.2,15.8-15.1,15.8c-3,0-5.8-0.9-8.2-2.4c2.8,0.3,5.6-0.5,7.9-2.2c-2.3,0-4.3-1.6-5-3.7c0.8,0.2,1.7,0.1,2.4-0.1
	c-2.6-0.5-4.3-2.8-4.3-5.3c0.7,0.4,1.5,0.6,2.4,0.7c-2.4-1.6-3-4.7-1.6-7.1c2.6,3.2,6.6,5.3,11,5.6c-0.8-3.3,1.8-6.5,5.2-6.5
	c1.5,0,2.9,0.6,3.9,1.7c1.2-0.2,2.4-0.7,3.4-1.3c-0.4,1.2-1.2,2.3-2.3,2.9c1.1-0.1,2.1-0.4,3.1-0.8C36.5,17.3,35.6,18.3,34.5,19z"/>
</svg>
