<?xml version="1.0" encoding="utf-8"?>
<!-- Generator: Adobe Illustrator 17.1.0, SVG Export Plug-In . SVG Version: 6.00 Build 0)  -->
<!DOCTYPE svg PUBLIC "-//W3C//DTD SVG 1.1//EN" "http://www.w3.org/Graphics/SVG/1.1/DTD/svg11.dtd">
<svg version="1.1" id="Capa_1" xmlns="http://www.w3.org/2000/svg" xmlns:xlink="http://www.w3.org/1999/xlink" x="0px" y="0px"
	 viewBox="200 0 561.2 561.2" enable-background="new 200 0 561.2 561.2" xml:space="preserve">
<path fill="#FFFFFF" d="M480.6,0C325.7,0,200,125.7,200,280.6s125.7,280.6,280.6,280.6s280.6-125.7,280.6-280.6S634.3,0,480.6,0z
	 M622.1,378.2c-1.2,6.1-2.4,11-4.9,14.6c-2.4,7.3-11,14.6-25.6,22c-13.4,7.3-25.6,11-37.8,11c-3.7,0-7.3,0-11-1.2
	c-3.7,0-7.3-1.2-12.2-2.4c-4.9-1.2-7.3-2.4-9.8-2.4c-2.4-1.2-6.1-2.4-11-3.7c-4.9-2.4-8.5-3.7-9.8-3.7c-13.4-4.9-25.6-11-35.4-17.1
	c-17.1-11-35.4-25.6-54.9-43.9s-32.9-36.6-43.9-54.9c-6.1-11-12.2-22-17.1-35.4c0-1.2-1.2-4.9-3.7-9.8c-2.4-4.9-3.7-9.8-3.7-11
	c-1.2-2.4-1.2-4.9-2.4-9.8c-1.2-4.9-2.4-8.5-2.4-12.2c0-3.7-1.2-7.3-1.2-11l0,0c0-12.2,3.7-25.6,11-37.8c7.3-13.4,14.6-22,22-25.6
	c3.7-1.2,8.5-2.4,14.6-4.9s11-2.4,14.6-2.4c2.4,0,3.7,0,4.9,1.2c2.4,1.2,6.1,6.1,11,15.9c1.2,2.4,3.7,6.1,6.1,11
	c2.4,4.9,4.9,8.5,7.3,13.4c2.4,3.7,4.9,7.3,6.1,11c0,0,1.2,2.4,3.7,4.9c2.4,2.4,3.7,4.9,4.9,7.3c1.2,2.4,1.2,3.7,1.2,6.1
	s-2.4,6.1-6.1,9.8c-3.7,3.7-8.5,7.3-12.2,11c-4.9,3.7-8.5,7.3-12.2,11c-3.7,3.7-6.1,7.3-6.1,9.8c0,1.2,0,2.4,1.2,4.9
	c1.2,2.4,1.2,3.7,1.2,3.7c0,1.2,1.2,2.4,2.4,4.9c1.2,2.4,2.4,3.7,2.4,3.7c11,18.3,22,35.4,35.4,48.8c13.4,13.4,29.3,25.6,48.8,35.4
	c0,0,1.2,1.2,3.7,2.4c2.4,1.2,3.7,2.4,4.9,2.4c1.2,0,2.4,1.2,3.7,1.2c2.4,1.2,3.7,1.2,4.9,1.2c2.4,0,6.1-2.4,9.8-6.1
	c3.7-3.7,7.3-8.5,11-12.2c3.7-4.9,7.3-8.5,11-12.2c3.7-3.7,7.3-6.1,9.8-6.1c2.4,0,3.7,0,6.1,1.2c2.4,1.2,4.9,2.4,7.3,4.9
	c2.4,2.4,4.9,3.7,4.9,3.7c3.7,2.4,7.3,3.7,11,6.1c3.7,2.4,8.5,4.9,13.4,7.3c4.9,2.4,8.5,4.9,11,6.1c9.8,4.9,14.6,8.5,15.9,11
	c0,1.2,1.2,2.4,1.2,4.9C624.6,367.2,624.6,372.1,622.1,378.2z"/>
</svg>
