<?xml version="1.0" encoding="utf-8"?>
<!-- Generator: Adobe Illustrator 17.1.0, SVG Export Plug-In . SVG Version: 6.00 Build 0)  -->
<!DOCTYPE svg PUBLIC "-//W3C//DTD SVG 1.1//EN" "http://www.w3.org/Graphics/SVG/1.1/DTD/svg11.dtd">
<svg version="1.1" id="Capa_1" xmlns="http://www.w3.org/2000/svg" xmlns:xlink="http://www.w3.org/1999/xlink" x="0px" y="0px"
	 viewBox="0 0 45.9 45.9" enable-background="new 0 0 45.9 45.9" xml:space="preserve">
<path id="facebook-circle-icon" fill="#FFFFFF" d="M23,0C10.3,0,0,10.3,0,23c0,12.7,10.3,23,23,23c12.7,0,23-10.3,23-23
	C45.9,10.3,35.6,0,23,0z M29.8,13.5c0,0-2.3,0-3.2,0c-1.1,0-1.4,0.5-1.4,1.6c0,1,0,2.8,0,2.8h4.6l-0.4,5h-4.1v14.9h-5.9V23h-3.1v-5
	h3.1c0,0,0-0.7,0-4c0-3.7,2-5.7,6.4-5.7c0.7,0,4.1,0,4.1,0V13.5L29.8,13.5z"/>
</svg>
