<?xml version="1.0" encoding="utf-8"?>
<!-- Generator: Adobe Illustrator 17.1.0, SVG Export Plug-In . SVG Version: 6.00 Build 0)  -->
<!DOCTYPE svg PUBLIC "-//W3C//DTD SVG 1.1//EN" "http://www.w3.org/Graphics/SVG/1.1/DTD/svg11.dtd">
<svg version="1.1" id="Capa_1" xmlns="http://www.w3.org/2000/svg" xmlns:xlink="http://www.w3.org/1999/xlink" x="0px" y="0px"
	 viewBox="0 0 168.9 22.3" enable-background="new 0 0 168.9 22.3" xml:space="preserve">
<g>
	<g>
		<path fill="#FFFFFF" d="M14.1,13.5l-1.9,4.6H0l0.1-0.4h0.5c0.4,0,0.7-0.1,1-0.2C1.8,17.4,2,17.3,2.1,17c0.1-0.2,0.3-0.6,0.5-1.2
			l2.6-8.6c0.2-0.7,0.3-1.1,0.3-1.3c0-0.2-0.1-0.3-0.3-0.4C4.9,5.4,4.7,5.3,4.3,5.3H3.8l0.1-0.4h7.3l-0.1,0.4h-0.6
			c-0.4,0-0.7,0.1-1,0.2C9.3,5.6,9.1,5.8,9,6C8.9,6.1,8.7,6.5,8.5,7.2L6,15.6c-0.2,0.7-0.3,1.1-0.3,1.3c0,0.2,0.1,0.3,0.3,0.4
			c0.2,0.1,0.6,0.1,1.2,0.1h1.1c0.7,0,1.4-0.1,1.9-0.4c0.6-0.2,1.1-0.6,1.6-1.2c0.5-0.5,1.1-1.3,1.7-2.3H14.1z"/>
		<path fill="#FFFFFF" d="M19.3,16.7c-1.5,1-2.6,1.5-3.6,1.5c-0.5,0-0.9-0.2-1.2-0.5c-0.3-0.3-0.3-0.8-0.2-1.3
			c0.2-0.7,0.7-1.3,1.5-1.9c0.8-0.6,2.4-1.3,4.7-2.2l0.3-0.9c0.2-0.7,0.3-1.1,0.3-1.3c0-0.2-0.1-0.3-0.3-0.5
			c-0.2-0.1-0.4-0.2-0.7-0.2c-0.4,0-0.8,0.1-1.2,0.3c-0.2,0.1-0.3,0.3-0.4,0.4c0,0.1,0,0.3,0.1,0.5c0.2,0.3,0.2,0.5,0.2,0.8
			c-0.1,0.3-0.3,0.6-0.6,0.8c-0.3,0.2-0.7,0.3-1.1,0.3c-0.4,0-0.7-0.1-1-0.4c-0.2-0.2-0.3-0.5-0.2-0.9c0.1-0.5,0.5-0.9,1-1.3
			c0.5-0.4,1.1-0.7,1.9-1c0.8-0.2,1.5-0.3,2.2-0.3c0.9,0,1.6,0.2,2,0.5c0.4,0.4,0.6,0.8,0.7,1.2c0,0.3-0.1,0.9-0.4,1.9l-1.1,3.5
			c-0.1,0.4-0.2,0.7-0.2,0.8c0,0.1,0,0.2,0.1,0.2c0.1,0,0.1,0.1,0.2,0.1c0.2,0,0.4-0.1,0.6-0.4l0.2,0.2c-0.5,0.5-0.9,0.8-1.4,1
			c-0.4,0.2-0.9,0.3-1.3,0.3c-0.5,0-0.9-0.1-1.2-0.4C19.3,17.6,19.2,17.2,19.3,16.7z M19.5,16l0.9-3c-1,0.5-1.7,1-2.3,1.5
			c-0.4,0.3-0.6,0.7-0.7,1c-0.1,0.3-0.1,0.6,0.1,0.8c0.1,0.2,0.3,0.3,0.6,0.3C18.5,16.6,19,16.4,19.5,16z"/>
		<path fill="#FFFFFF" d="M38.9,11.1c1.2,0.3,2,0.6,2.4,1.1c0.6,0.6,0.7,1.3,0.5,2.3c-0.3,1-1,1.8-2,2.4c-1.3,0.8-2.9,1.2-4.8,1.2
			h-7l0.1-0.4c0.6,0,1.1-0.1,1.3-0.2c0.3-0.1,0.5-0.3,0.6-0.4c0.1-0.2,0.3-0.6,0.5-1.3l2.5-8.5c0.2-0.7,0.3-1.2,0.3-1.3
			c0-0.2-0.2-0.3-0.4-0.4c-0.2-0.1-0.6-0.2-1.2-0.2l0.1-0.4h6.6c1.6,0,2.7,0.1,3.2,0.4c0.6,0.3,1,0.7,1.2,1.2
			c0.2,0.5,0.2,1.1,0.1,1.7c-0.2,0.6-0.6,1.2-1.2,1.7C41.1,10.4,40.2,10.8,38.9,11.1z M35,11.6l-1.3,4.2l-0.1,0.5
			c-0.1,0.4-0.1,0.6,0,0.8c0.1,0.2,0.4,0.3,0.7,0.3c0.5,0,1.1-0.1,1.6-0.3c0.5-0.2,1-0.6,1.3-1c0.4-0.4,0.6-0.9,0.8-1.5
			c0.2-0.6,0.2-1.2,0-1.6c-0.2-0.5-0.5-0.8-0.9-1C36.8,11.7,36.1,11.6,35,11.6z M35.3,10.9c1,0,1.7-0.1,2.2-0.3
			c0.5-0.2,1-0.5,1.3-0.9c0.4-0.4,0.6-0.8,0.8-1.4c0.2-0.6,0.2-1.1,0.1-1.4c-0.1-0.4-0.4-0.7-0.8-0.8c-0.4-0.2-1.1-0.3-2.1-0.3
			L35.3,10.9z"/>
		<path fill="#FFFFFF" d="M48.9,8.8c0.8,0,1.5,0.2,2.1,0.6c0.6,0.4,1,1,1.1,1.7c0.1,0.8,0.1,1.6-0.2,2.5c-0.4,1.3-1,2.4-2,3.2
			c-1.1,1-2.4,1.6-3.9,1.6c-1.4,0-2.4-0.5-2.9-1.4c-0.5-1-0.5-2.1-0.2-3.3c0.4-1.3,1.1-2.4,2.2-3.4C46.3,9.2,47.5,8.8,48.9,8.8z
			 M48.7,9.4c-0.3,0-0.7,0.1-1,0.4c-0.3,0.2-0.6,0.7-0.9,1.5c-0.3,0.7-0.6,1.8-1,3.1c-0.2,0.7-0.4,1.3-0.4,1.9c-0.1,0.5,0,0.8,0.2,1
			c0.2,0.2,0.4,0.4,0.7,0.4c0.3,0,0.6-0.1,0.8-0.2c0.3-0.2,0.6-0.5,0.8-0.9c0.3-0.6,0.8-1.8,1.3-3.7c0.3-1.1,0.5-1.8,0.5-2.3
			c0-0.4-0.1-0.7-0.3-0.9C49.2,9.5,49,9.4,48.7,9.4z"/>
		<path fill="#FFFFFF" d="M63.4,9l-2.1,7.1C61,16.8,61,17.2,61,17.4c0.1,0.2,0.3,0.3,0.7,0.3l-0.1,0.4h-3.9l0.4-1.2
			c-0.6,0.5-1.2,0.9-1.7,1.1c-0.5,0.2-1.1,0.4-1.6,0.4c-0.5,0-1-0.2-1.3-0.5c-0.3-0.3-0.5-0.7-0.5-1.1c0-0.4,0.1-1.2,0.4-2.2
			l1.1-3.6c0.2-0.7,0.3-1.1,0.2-1.3c-0.1-0.2-0.3-0.3-0.7-0.3L54.2,9H58l-1.9,6.2c-0.2,0.6-0.3,1.1-0.3,1.2c0,0.2,0.1,0.3,0.2,0.4
			c0.1,0.1,0.3,0.1,0.4,0.1c0.2,0,0.5-0.1,0.7-0.2c0.3-0.2,0.7-0.5,1.3-1l1.4-4.8c0.2-0.7,0.3-1.1,0.2-1.3c-0.1-0.2-0.3-0.3-0.7-0.3
			L59.5,9H63.4z"/>
		<path fill="#FFFFFF" d="M70,5.7L69,9h2.2L71,10h-2.2l-1.7,5.6c-0.2,0.5-0.2,0.9-0.2,1c0,0.2,0.1,0.3,0.2,0.4
			c0.1,0.1,0.2,0.1,0.3,0.1c0.4,0,0.9-0.3,1.5-1l0.2,0.2c-0.9,1.2-2,1.9-3.2,1.9c-0.6,0-1.1-0.2-1.4-0.5C64.2,17.4,64,17,64,16.6
			c0-0.2,0.1-0.8,0.4-1.8l1.5-4.9h-1.2l0.1-0.3c1-0.6,1.9-1.2,2.7-1.8c0.8-0.6,1.5-1.3,2.2-2.1H70z"/>
		<path fill="#FFFFFF" d="M75.4,9l-2.1,7.2c-0.2,0.6-0.2,1-0.1,1.2c0.1,0.2,0.4,0.3,0.8,0.3l-0.1,0.4h-5.1l0.1-0.4
			c0.4,0,0.8-0.1,1-0.4c0.2-0.2,0.4-0.5,0.5-1.2l1.6-5.3c0.2-0.6,0.2-1,0.1-1.2c-0.1-0.2-0.4-0.3-0.8-0.3L71.4,9H75.4z M75.3,4.6
			c0.4,0,0.8,0.1,1,0.4c0.2,0.3,0.3,0.6,0.1,1.1c-0.1,0.4-0.4,0.8-0.8,1.1c-0.4,0.3-0.8,0.4-1.2,0.4c-0.4,0-0.8-0.1-1-0.4
			c-0.2-0.3-0.3-0.6-0.1-1.1c0.1-0.4,0.4-0.8,0.8-1.1C74.4,4.8,74.9,4.6,75.3,4.6z"/>
		<path fill="#FFFFFF" d="M80.9,17.1c-0.5,0.4-1,0.7-1.4,0.9c-0.5,0.2-1.1,0.4-1.6,0.4c-1.2,0-2-0.5-2.4-1.5c-0.3-0.8-0.3-1.8,0-2.9
			c0.3-0.9,0.8-1.8,1.4-2.6c0.7-0.8,1.4-1.4,2.3-1.9C80.1,9,81,8.8,81.8,8.8c0.5,0,1,0.1,1.4,0.3c0.4,0.2,0.7,0.4,0.8,0.8l1.9-1.1
			h0.3l-3.5,11.7c-0.2,0.6-0.2,1-0.2,1.1c0.1,0.2,0.4,0.4,1,0.4l-0.1,0.4h-5.5l0.1-0.4c0.4,0,0.7,0,0.9-0.1c0.2-0.1,0.4-0.2,0.5-0.4
			c0.1-0.2,0.2-0.5,0.4-0.9L80.9,17.1z M81.2,16.2l1.1-3.7c0.3-1,0.5-1.7,0.4-2.1c0-0.3-0.1-0.6-0.4-0.9c-0.1-0.1-0.3-0.2-0.6-0.2
			c-0.5,0-1,0.2-1.4,0.6c-0.6,0.7-1.2,1.9-1.8,3.7c-0.4,1.4-0.5,2.4-0.3,2.9c0.2,0.4,0.4,0.6,0.9,0.6c0.2,0,0.5-0.1,0.9-0.2
			C80.4,16.9,80.8,16.6,81.2,16.2z"/>
		<path fill="#FFFFFF" d="M97.2,9L95,16.1c-0.2,0.7-0.3,1.1-0.2,1.3c0.1,0.2,0.3,0.3,0.7,0.3l-0.1,0.4h-3.9l0.4-1.2
			c-0.6,0.5-1.2,0.9-1.7,1.1c-0.5,0.2-1.1,0.4-1.6,0.4c-0.5,0-1-0.2-1.3-0.5c-0.3-0.3-0.5-0.7-0.5-1.1c0-0.4,0.1-1.2,0.4-2.2
			l1.1-3.6c0.2-0.7,0.3-1.1,0.2-1.3c-0.1-0.2-0.3-0.3-0.7-0.3L88,9h3.9L90,15.2c-0.2,0.6-0.3,1.1-0.3,1.2c0,0.2,0.1,0.3,0.2,0.4
			C90,17,90.1,17,90.3,17c0.2,0,0.5-0.1,0.7-0.2c0.3-0.2,0.7-0.5,1.3-1l1.4-4.8c0.2-0.7,0.3-1.1,0.2-1.3c-0.1-0.2-0.3-0.3-0.7-0.3
			L93.3,9H97.2z"/>
		<path fill="#FFFFFF" d="M105.8,13.2h-5.2c-0.3,1.2-0.2,2.2,0.2,2.9c0.3,0.5,0.8,0.8,1.4,0.8c0.4,0,0.8-0.1,1.2-0.3
			c0.4-0.2,0.9-0.6,1.4-1.2l0.3,0.2c-0.8,1-1.6,1.7-2.3,2.1c-0.7,0.4-1.5,0.6-2.3,0.6c-1.4,0-2.3-0.5-2.7-1.6
			c-0.3-0.8-0.3-1.9,0.1-3.1c0.5-1.5,1.2-2.7,2.4-3.6c1.1-0.9,2.3-1.3,3.4-1.3c1,0,1.7,0.4,2.1,1.1
			C106.2,10.6,106.2,11.7,105.8,13.2z M103.6,12.6c0.3-1,0.5-1.7,0.5-2.1c0-0.4-0.1-0.7-0.3-0.9c-0.1-0.1-0.3-0.2-0.5-0.2
			c-0.3,0-0.7,0.2-1,0.5c-0.6,0.6-1,1.4-1.3,2.4l-0.1,0.3H103.6z"/>
	</g>
	<g>
		<path fill="#FFFFFF" d="M123.8,4.6l-3.1,10.4c-0.2,0.7-0.3,1.1-0.3,1.2c0,0.2,0,0.4,0.2,0.5c0.1,0.1,0.4,0.2,0.7,0.2l-0.1,0.3
			l-4.2,0.8l0.4-1.4c-0.6,0.6-1.2,0.9-1.6,1.1c-0.4,0.2-0.9,0.3-1.4,0.3c-1.2,0-2-0.5-2.4-1.6c-0.3-0.8-0.3-1.9,0.1-3.1
			c0.3-1,0.7-1.8,1.3-2.6c0.6-0.8,1.2-1.4,2-1.7c0.7-0.4,1.4-0.6,2.1-0.6c0.5,0,0.8,0.1,1.1,0.2c0.3,0.2,0.6,0.5,0.9,0.9l0.8-2.7
			c0.2-0.7,0.3-1.1,0.3-1.2c0-0.2-0.1-0.3-0.2-0.4c-0.1-0.1-0.4-0.1-0.9-0.1l0.1-0.4H123.8z M119.1,10.8c-0.2-0.9-0.7-1.4-1.4-1.4
			c-0.2,0-0.5,0.1-0.7,0.2c-0.3,0.2-0.6,0.6-0.9,1.1c-0.3,0.5-0.6,1.3-0.9,2.3c-0.3,1.1-0.5,2-0.5,2.5c0,0.5,0.1,0.9,0.4,1.2
			c0.1,0.1,0.3,0.2,0.6,0.2c0.6,0,1.3-0.4,2.1-1.3L119.1,10.8z"/>
		<path fill="#FFFFFF" d="M131.2,12.9H126c-0.3,1.2-0.2,2.2,0.2,2.9c0.3,0.5,0.8,0.8,1.4,0.8c0.4,0,0.8-0.1,1.2-0.3
			c0.4-0.2,0.9-0.6,1.4-1.2l0.3,0.2c-0.8,1-1.6,1.7-2.3,2.1c-0.7,0.4-1.5,0.6-2.3,0.6c-1.4,0-2.3-0.5-2.7-1.6
			c-0.3-0.8-0.3-1.9,0.1-3.1c0.5-1.5,1.2-2.7,2.4-3.6c1.1-0.9,2.3-1.3,3.4-1.3c1,0,1.7,0.4,2.1,1.1
			C131.5,10.3,131.6,11.4,131.2,12.9z M128.9,12.3c0.3-1,0.5-1.7,0.5-2.1c0-0.4-0.1-0.7-0.3-0.9c-0.1-0.1-0.3-0.2-0.5-0.2
			c-0.3,0-0.7,0.2-1,0.5c-0.6,0.6-1,1.4-1.3,2.4l-0.1,0.3H128.9z"/>
		<path fill="#FFFFFF" d="M138.1,4.6l-3.4,11.3c-0.2,0.6-0.2,1-0.1,1.2c0.1,0.2,0.4,0.3,0.8,0.3l-0.1,0.4h-5.1l0.1-0.4
			c0.4,0,0.8-0.1,1-0.4c0.2-0.1,0.4-0.5,0.6-1.2l2.8-9.4c0.2-0.6,0.2-1,0.1-1.2C134.7,5.1,134.4,5,134,5l0.1-0.4H138.1z"/>
		<path fill="#FFFFFF" d="M156.7,4.6l-1.1,3.6h-0.4c0-0.8,0-1.4-0.2-1.8c-0.2-0.4-0.4-0.6-0.8-0.9c-0.2-0.1-0.7-0.2-1.3-0.2h-1
			l-3,10.1c-0.2,0.7-0.3,1.1-0.3,1.3c0,0.2,0.1,0.3,0.3,0.4c0.2,0.1,0.5,0.2,0.9,0.2h0.5l-0.1,0.4H143l0.1-0.4h0.5
			c0.4,0,0.7-0.1,1-0.2c0.2-0.1,0.4-0.2,0.6-0.5c0.1-0.2,0.3-0.6,0.5-1.2l3-10.1h-1c-0.9,0-1.7,0.2-2.2,0.6
			c-0.7,0.5-1.3,1.3-1.8,2.2h-0.4l1.1-3.6H156.7z"/>
		<path fill="#FFFFFF" d="M162.4,5.4l-1.6,5.3h0.3c0.9,0,1.6-0.3,2.1-0.8c0.5-0.5,1-1.3,1.4-2.3h0.4l-2.1,6.9h-0.4
			c0.1-0.7,0.2-1.4,0-1.8c-0.1-0.5-0.3-0.8-0.6-1c-0.3-0.2-0.8-0.2-1.4-0.2l-1.1,3.7c-0.2,0.7-0.3,1.2-0.3,1.3
			c0,0.2,0.1,0.3,0.2,0.4c0.1,0.1,0.4,0.2,0.8,0.2h0.8c1.3,0,2.4-0.3,3.3-0.8c0.9-0.6,1.8-1.4,2.4-2.6h0.4l-1.9,4.2h-11.9l0.1-0.4
			h0.5c0.4,0,0.7-0.1,1-0.2c0.2-0.1,0.4-0.2,0.5-0.5c0.1-0.2,0.3-0.6,0.5-1.2l2.6-8.6c0.2-0.6,0.3-1,0.3-1.1c0-0.2-0.1-0.4-0.2-0.5
			c-0.2-0.2-0.5-0.3-1-0.3h-0.5l0.1-0.4h11.5l-1.2,3.9h-0.4c0.1-1,0-1.6-0.2-2c-0.2-0.4-0.6-0.7-1.2-0.9c-0.3-0.1-1-0.2-2.1-0.2
			H162.4z M168.5,0l-4.4,3.4h-0.9l2.2-3.4H168.5z"/>
	</g>
</g>
</svg>
